<?xml version="1.0" standalone="no"?>
<!DOCTYPE svg PUBLIC "-//W3C//DTD SVG 20010904//EN"
 "http://www.w3.org/TR/2001/REC-SVG-20010904/DTD/svg10.dtd">
<svg version="1.0" xmlns="http://www.w3.org/2000/svg"
 width="486.000000pt" height="486.000000pt" viewBox="0 0 486.000000 486.000000"
 preserveAspectRatio="xMidYMid meet">
<metadata>
Created by potrace 1.11, written by Peter Selinger 2001-2013
</metadata>
<g transform="translate(0.000000,486.000000) scale(0.100000,-0.100000)"
fill="#000000" stroke="none">
<path d="M2728 4656 c-1 -8 -70 -49 -152 -91 -113 -57 -151 -73 -158 -63 -5 9
-8 6 -8 -10 0 -17 -10 -27 -44 -42 -24 -10 -47 -23 -51 -29 -3 -6 -23 -18 -43
-27 -20 -8 -44 -23 -53 -33 -20 -21 -49 -75 -49 -90 0 -10 -6 -19 -61 -85 -42
-50 -60 -109 -53 -169 6 -47 2 -60 -27 -117 -19 -36 -45 -89 -57 -119 -13 -30
-39 -73 -58 -96 -19 -23 -34 -47 -34 -53 0 -14 -67 -82 -80 -82 -6 0 -23 -13
-38 -30 -16 -16 -34 -30 -41 -30 -6 0 -11 -5 -11 -10 0 -6 -12 -16 -27 -23
-27 -12 -51 -28 -78 -54 -8 -7 -16 -13 -20 -13 -4 0 -12 -6 -19 -12 -8 -7 -24
-20 -36 -28 -12 -8 -29 -22 -38 -30 -18 -18 -34 -20 -44 -5 -5 6 -8 2 -8 -8 0
-10 -16 -34 -35 -53 -19 -18 -35 -36 -35 -40 0 -3 -21 -26 -46 -51 -36 -34
-49 -42 -55 -31 -6 9 -9 3 -9 -19 0 -17 -7 -38 -15 -47 -8 -8 -15 -19 -15 -25
0 -6 -4 -11 -9 -11 -4 0 -16 -20 -25 -45 -10 -25 -21 -45 -24 -45 -4 0 -13
-12 -19 -27 -7 -16 -22 -49 -33 -75 -12 -27 -25 -48 -29 -48 -5 0 -11 -9 -14
-21 -3 -12 -10 -18 -15 -15 -6 3 -12 -11 -14 -32 -9 -71 -65 -248 -89 -278 -5
-6 -11 -36 -15 -67 -4 -33 -12 -58 -20 -61 -8 -3 -14 -20 -14 -39 0 -18 -4
-37 -8 -42 -5 -6 -15 -30 -22 -55 -8 -25 -25 -56 -37 -70 -13 -14 -23 -33 -23
-42 0 -10 -4 -18 -9 -18 -5 0 -15 -15 -21 -34 -6 -19 -17 -37 -25 -40 -8 -3
-20 -26 -26 -51 -6 -25 -15 -45 -20 -45 -5 0 -9 -8 -9 -17 -1 -25 -36 -124
-47 -132 -15 -10 -45 -99 -48 -144 -2 -23 -4 -45 -4 -48 -1 -3 -10 -14 -20
-26 -22 -23 -51 -77 -51 -93 0 -6 -14 -29 -31 -50 -23 -28 -29 -44 -24 -60 6
-20 12 -22 61 -17 30 3 54 2 54 -1 0 -4 -7 -28 -15 -54 -8 -27 -12 -48 -10
-48 8 0 -55 -162 -75 -195 -11 -18 -20 -44 -20 -59 0 -14 -4 -26 -10 -26 -5 0
-10 -4 -10 -10 0 -5 -11 -20 -25 -34 -13 -13 -27 -37 -31 -53 -4 -15 -29 -49
-56 -74 -26 -25 -48 -49 -48 -53 0 -4 -10 -18 -22 -31 -39 -41 -45 -50 -57
-88 -9 -27 -19 -38 -39 -43 -15 -3 -35 -9 -44 -15 -10 -5 -24 -9 -31 -9 -7 0
-24 -10 -37 -22 -14 -13 -34 -23 -45 -23 -19 0 -20 -7 -23 -228 l-2 -227 1436
0 c1339 0 1438 1 1465 17 16 10 29 20 29 24 0 12 39 17 43 5 4 -13 100 9 105
24 2 5 10 6 18 3 11 -4 14 6 15 43 1 27 1 58 0 69 -1 12 10 28 28 40 48 31 51
108 5 119 -39 10 -74 46 -74 78 0 15 -4 28 -9 28 -5 0 -14 13 -19 30 -12 34
-55 80 -75 80 -7 0 -22 7 -33 15 -10 8 -34 15 -52 15 -32 0 -111 45 -112 63 0
11 -70 77 -82 77 -15 0 -88 78 -88 94 0 8 -10 26 -23 38 -22 22 -23 27 -11 58
7 19 13 32 13 28 1 -12 51 38 51 51 0 7 27 39 60 71 33 32 60 62 60 66 0 9 67
74 76 74 4 0 27 16 51 36 23 19 65 50 91 68 50 33 125 106 201 195 25 28 50
51 58 51 7 0 24 24 38 53 17 37 45 69 94 110 40 33 83 80 100 110 33 55 51 84
64 101 7 10 67 127 138 268 16 31 45 73 64 94 25 27 35 46 35 70 0 19 16 60
39 101 21 37 49 99 61 137 21 64 22 81 17 235 -6 167 -21 249 -62 328 -8 15
-15 36 -15 46 0 9 -4 17 -10 17 -5 0 -10 7 -10 15 0 16 -59 118 -72 123 -4 2
-8 10 -8 18 0 8 -11 25 -25 38 -16 15 -25 34 -25 53 0 17 -6 48 -14 69 -7 22
-12 53 -10 69 2 17 6 56 9 88 3 32 9 66 14 75 5 9 12 36 16 60 4 23 11 42 16
42 5 0 9 11 9 24 0 13 7 26 15 30 8 3 15 11 15 17 0 26 113 110 145 108 19 -2
165 35 165 42 0 4 9 5 20 2 11 -3 20 0 20 6 0 6 12 11 26 11 14 0 46 8 72 19
85 34 186 69 247 86 33 9 111 41 173 71 63 30 116 54 119 54 8 0 33 28 33 38
0 13 -17 19 -83 27 -32 4 -57 10 -57 14 0 12 -659 -4 -671 -16 -6 -6 -57 -8
-127 -5 -90 3 -121 8 -134 21 -9 9 -28 25 -42 36 -15 11 -38 30 -51 43 -13 12
-29 22 -35 22 -5 0 -10 7 -10 15 0 18 -47 39 -127 56 -32 7 -61 14 -65 15 -5
1 -24 2 -43 3 -22 1 -35 6 -35 14 0 23 -329 41 -460 25 -25 -2 -50 -1 -57 4
-7 6 -13 4 -15 -6z"/>
</g>
</svg>
