<?xml version="1.0" standalone="no"?>
<!DOCTYPE svg PUBLIC "-//W3C//DTD SVG 20010904//EN"
 "http://www.w3.org/TR/2001/REC-SVG-20010904/DTD/svg10.dtd">
<svg version="1.0" xmlns="http://www.w3.org/2000/svg"
 width="192.000000pt" height="192.000000pt" viewBox="0 0 192.000000 192.000000"
 preserveAspectRatio="xMidYMid meet">
<metadata>
Created by potrace 1.11, written by Peter Selinger 2001-2013
</metadata>
<g transform="translate(0.000000,192.000000) scale(0.100000,-0.100000)"
fill="#000000" stroke="none">
<path d="M1098 1838 c-21 -4 -56 -19 -78 -33 -22 -14 -43 -25 -47 -25 -14 0
-113 -70 -113 -80 0 -5 -11 -26 -26 -47 -14 -21 -24 -49 -23 -63 3 -33 -46
-132 -86 -173 -17 -17 -58 -50 -91 -72 -81 -54 -128 -106 -167 -178 -17 -34
-35 -64 -38 -67 -3 -3 -12 -23 -18 -45 -7 -22 -15 -47 -18 -55 -4 -8 -7 -17
-8 -20 -1 -3 -4 -12 -7 -20 -3 -8 -11 -34 -17 -58 -7 -23 -28 -69 -46 -101
-19 -33 -35 -64 -35 -71 0 -6 -9 -29 -21 -51 -11 -23 -18 -47 -15 -55 3 -7 -1
-19 -8 -27 -13 -13 -46 -71 -46 -82 0 -3 11 -5 24 -5 23 0 24 -2 14 -37 -14
-53 -65 -153 -92 -183 -13 -14 -33 -40 -45 -58 -12 -17 -31 -32 -42 -32 -10 0
-19 -4 -19 -10 0 -5 -7 -10 -15 -10 -12 0 -15 -17 -15 -90 l0 -90 565 0 c325
0 574 4 587 9 13 5 35 12 51 15 22 5 27 12 27 36 0 17 5 30 10 30 16 0 12 47
-4 53 -8 3 -22 21 -31 40 -10 21 -26 38 -41 41 -13 4 -25 5 -27 4 -5 -4 -99
80 -115 103 -12 17 -12 23 2 43 24 38 77 91 129 130 26 20 69 59 95 88 26 29
61 67 77 85 38 40 47 53 91 138 20 39 42 77 49 85 7 8 25 44 41 80 23 54 27
78 25 140 -2 74 -22 150 -47 180 -29 34 -54 108 -50 146 3 22 5 39 6 39 1 0 4
11 6 24 9 48 48 86 105 100 126 31 319 106 319 122 0 16 -77 21 -242 16 l-170
-5 -36 33 c-34 30 -90 52 -119 46 -7 -1 -13 2 -13 7 0 4 -12 9 -27 9 -16 1
-50 3 -78 5 -27 3 -67 1 -87 -4z"/>
</g>
</svg>
